<svg xmlns="http://www.w3.org/2000/svg" xmlns:xlink="http://www.w3.org/1999/xlink" width="200" height="200" class="icon" p-id="3669" t="1622792136601" version="1.1" viewBox="0 0 1024 1024"><defs><style type="text/css"/></defs><path fill="#e6e6e6" d="M781.028571 539.085714c-0.457143-77.942857 34.857143-136.685714 106.171429-180-39.885714-57.142857-100.228571-88.571429-179.771429-94.628571-75.314286-5.942857-157.714286 43.885714-187.885714 43.885714-31.885714 0-104.8-41.828571-162.171428-41.828571C238.971429 268.342857 113.142857 360.914286 113.142857 549.257143c0 55.657143 10.171429 113.142857 30.514286 172.342857 27.2 77.942857 125.257143 268.914286 227.542857 265.828571 53.485714-1.257143 91.314286-37.942857 160.914286-37.942857 67.542857 0 102.514286 37.942857 162.171428 37.942857 103.2-1.485714 191.885714-175.085714 217.714286-253.257142-138.4-65.257143-130.971429-191.085714-130.971429-195.085715z m-120.114285-348.571428c57.942857-68.8 52.685714-131.428571 50.971428-153.942857-51.2 2.971429-110.4 34.857143-144.114285 74.057142-37.142857 42.057143-58.971429 94.057143-54.285715 152.685715 55.314286 4.228571 105.828571-24.228571 147.428572-72.8z" p-id="3670"/></svg>